<?xml version="1.0" standalone="no"?><!DOCTYPE svg PUBLIC "-//W3C//DTD SVG 1.1//EN" "http://www.w3.org/Graphics/SVG/1.1/DTD/svg11.dtd"><svg class="icon" width="200px" height="200.00px" viewBox="0 0 1024 1024" version="1.1" xmlns="http://www.w3.org/2000/svg"><path fill="#333333" d="M512 922.59a31.9 31.9 0 0 1-22.63-9.37L146.31 570.15A274.6 274.6 0 0 1 512 161.54a274.6 274.6 0 0 1 365.69 408.61L534.63 913.21a31.9 31.9 0 0 1-22.63 9.38zM340.47 165.41a210.58 210.58 0 0 0-148.9 359.49L512 845.33 832.43 524.9a210.58 210.58 0 1 0-297.8-297.81 32 32 0 0 1-45.25 0 209.2 209.2 0 0 0-148.91-61.68zM512 922.59a31.9 31.9 0 0 1-22.63-9.37L146.31 570.15A274.6 274.6 0 0 1 512 161.54a274.6 274.6 0 0 1 365.69 408.61L534.63 913.21a31.9 31.9 0 0 1-22.63 9.38zM340.47 165.41a210.58 210.58 0 0 0-148.9 359.49L512 845.33 832.43 524.9a210.58 210.58 0 1 0-297.8-297.81 32 32 0 0 1-45.25 0 209.2 209.2 0 0 0-148.91-61.68z" /></svg>