<?xml version="1.0" standalone="no"?><!DOCTYPE svg PUBLIC "-//W3C//DTD SVG 1.1//EN" "http://www.w3.org/Graphics/SVG/1.1/DTD/svg11.dtd"><svg class="icon" width="200px" height="200.00px" viewBox="0 0 1024 1024" version="1.1" xmlns="http://www.w3.org/2000/svg"><path fill="#333333" d="M908.5 526.2l-30.8 36.7c-2.6 3-6.2 4.8-10.4 5.4h-1.5c-4.3 0-7.8-1.1-10.4-3.4L512 278.5 168.6 564.9c-4 2.6-7.9 3.8-11.9 3.4-4.3-0.6-7.8-2.5-10.4-5.4l-30.8-36.7c-2.6-3.3-3.8-7.2-3.4-11.7 0.3-4.5 2.2-8 5.4-10.6l356.8-297.2c10.5-8.7 23.1-12.9 37.7-12.9 14.5 0 27.1 4.3 37.7 12.9l121.1 101.2v-96.8c0-4.6 1.5-8.5 4.5-11.4 3-3 6.8-4.5 11.4-4.5H782c4.6 0 8.5 1.5 11.4 4.5 3 3 4.5 6.8 4.5 11.4v202.5l108.8 90.3c3.3 2.6 5.1 6.2 5.4 10.6 0.2 4.5-1 8.4-3.6 11.7z m-110.6 34.2v238.2c0 8.6-3.1 16.1-9.4 22.3s-13.8 9.4-22.3 9.4H575.6V639.9H448.4v190.5H258c-8.6 0-16.1-3.1-22.3-9.4-6.3-6.3-9.4-13.7-9.4-22.3V560.4c0-0.3 0.1-0.8 0.2-1.5 0.2-0.6 0.2-1.1 0.2-1.5L512 322.3l285.4 235.3c0.3 0.5 0.5 1.5 0.5 2.8z" /></svg>