<?xml version="1.0" standalone="no"?><!DOCTYPE svg PUBLIC "-//W3C//DTD SVG 1.1//EN" "http://www.w3.org/Graphics/SVG/1.1/DTD/svg11.dtd"><svg class="icon" width="200px" height="200.00px" viewBox="0 0 1024 1024" version="1.1" xmlns="http://www.w3.org/2000/svg"><path fill="#333333" d="M818.848 612.352l148.128-338.816a19.2 19.2 0 0 0-17.632-26.88H313.184l-24.032-111.52a19.2 19.2 0 0 0-18.752-15.136H63.04a19.2 19.2 0 1 0 0 38.4h191.84l119.744 555.232a101.248 101.248 0 0 0-79.84 98.752 101.184 101.184 0 0 0 101.088 101.056 101.152 101.152 0 0 0 101.024-101.056c0-23.712-8.544-45.248-22.272-62.528h220a99.968 99.968 0 0 0-22.304 62.528c0 55.712 45.376 101.056 101.088 101.056s101.024-45.344 101.024-101.056a101.12 101.12 0 0 0-101.024-101.056c-0.832 0-1.632 0.224-2.464 0.256v-0.384H413.088c-0.064-0.576 0.096-1.056 0-1.632l-18.496-85.696h406.656a19.264 19.264 0 0 0 17.6-11.52z m-422.976 262.688c-34.56 0-62.656-28.096-62.656-62.656s28.128-62.688 62.656-62.688 62.656 28.128 62.656 62.688-28.128 62.656-62.656 62.656z m440.192-62.656a62.72 62.72 0 0 1-62.624 62.656c-34.56 0-62.688-28.096-62.688-62.656s28.128-62.688 62.688-62.688a62.72 62.72 0 0 1 62.624 62.688z m-444.8-226.912l-69.312-300.416H920l-131.328 300.416H391.264z"  /></svg>